# xmcd
#
# Track frame offsets:
# 150
# 15182
# 37527
# 52910
# 66147
# 86485
# 98150
# 109400
# 124295
# 142815
# 158960
# 174542
# 192752
# 206172
#
# Disc length: 2951 seconds
#
# Revision: 0
# Processed by: cddbd v1.5.1PL0 Copyright (c) Steve Scherf et al.
# Submitted via: plextools 2.17
#
DISCID=af0b850e
DTITLE=Eric Clapton - Me and Mr Johnson
DYEAR=2004
DGENRE=Blues
TTITLE0=Eric Clapton - When You Got A Good Friend
TTITLE1=Eric Clapton - Little Queen Of Spades
TTITLE2=Eric Clapton - They're Red Hot
TTITLE3=Eric Clapton - Me And The Devil Blues
TTITLE4=Eric Clapton - Traveling Riverside Blues
TTITLE5=Eric Clapton - Last Fair Deal Gone Down
TTITLE6=Eric Clapton - Stop Breakin Down Blues
TTITLE7=Eric Clapton - Milkcow's Calf Blues
TTITLE8=Eric Clapton - Kind Hearted Woman Blues
TTITLE9=Eric Clapton - Come On In My Kitchen
TTITLE10=Eric Clapton - If I Had Possession Over Judgement Day
TTITLE11=Eric Clapton - Love In Vain
TTITLE12=Eric Clapton - 32-20 Blues
TTITLE13=Eric Clapton - Hell Hound On My Trail
EXTD=
EXTT0=
EXTT1=
EXTT2=
EXTT3=
EXTT4=
EXTT5=
EXTT6=
EXTT7=
EXTT8=
EXTT9=
EXTT10=
EXTT11=
EXTT12=
EXTT13=
PLAYORDER=
